<mxfile host="app.diagrams.net" modified="2021-08-06T05:48:18.326Z" agent="5.0 (Macintosh; Intel Mac OS X 10_15_2) AppleWebKit/537.36 (KHTML, like Gecko) Chrome/92.0.4515.107 Safari/537.36" etag="KMdZkiEFtXO4ydLsRW4S" version="14.9.4" type="github">
  <diagram id="dKhZ5Zpg16U_er6FBobt" name="Page-1">
    <mxGraphModel dx="926" dy="507" grid="1" gridSize="10" guides="1" tooltips="1" connect="1" arrows="1" fold="1" page="1" pageScale="1" pageWidth="1654" pageHeight="2336" math="0" shadow="0">
      <root>
        <mxCell id="0" />
        <mxCell id="1" parent="0" />
        <mxCell id="I61Vym2kbqJ8tgAql6KG-1" style="edgeStyle=orthogonalEdgeStyle;curved=1;rounded=0;orthogonalLoop=1;jettySize=auto;html=1;exitX=0;exitY=0.5;exitDx=0;exitDy=0;entryX=0;entryY=0.5;entryDx=0;entryDy=0;fontSize=18;" edge="1" parent="1" source="I61Vym2kbqJ8tgAql6KG-3" target="I61Vym2kbqJ8tgAql6KG-6">
          <mxGeometry relative="1" as="geometry" />
        </mxCell>
        <mxCell id="I61Vym2kbqJ8tgAql6KG-2" style="edgeStyle=orthogonalEdgeStyle;curved=1;rounded=0;orthogonalLoop=1;jettySize=auto;html=1;exitX=1;exitY=0;exitDx=0;exitDy=0;entryX=0;entryY=0;entryDx=0;entryDy=0;fontSize=18;" edge="1" parent="1" source="I61Vym2kbqJ8tgAql6KG-3" target="I61Vym2kbqJ8tgAql6KG-14">
          <mxGeometry relative="1" as="geometry">
            <Array as="points">
              <mxPoint x="890" y="440" />
              <mxPoint x="890" y="440" />
            </Array>
          </mxGeometry>
        </mxCell>
        <mxCell id="I61Vym2kbqJ8tgAql6KG-3" value="&lt;font style=&quot;font-size: 18px;&quot;&gt;B&lt;/font&gt;" style="rounded=0;whiteSpace=wrap;html=1;fontSize=18;" vertex="1" parent="1">
          <mxGeometry x="630" y="440" width="120" height="30" as="geometry" />
        </mxCell>
        <mxCell id="I61Vym2kbqJ8tgAql6KG-4" style="edgeStyle=orthogonalEdgeStyle;curved=1;rounded=0;orthogonalLoop=1;jettySize=auto;html=1;exitX=1;exitY=0.5;exitDx=0;exitDy=0;entryX=1;entryY=0.5;entryDx=0;entryDy=0;fontSize=18;" edge="1" parent="1" source="I61Vym2kbqJ8tgAql6KG-6" target="I61Vym2kbqJ8tgAql6KG-3">
          <mxGeometry relative="1" as="geometry" />
        </mxCell>
        <mxCell id="I61Vym2kbqJ8tgAql6KG-5" style="edgeStyle=orthogonalEdgeStyle;curved=1;rounded=0;orthogonalLoop=1;jettySize=auto;html=1;exitX=1;exitY=1;exitDx=0;exitDy=0;entryX=0;entryY=1;entryDx=0;entryDy=0;fontSize=18;" edge="1" parent="1" source="I61Vym2kbqJ8tgAql6KG-6" target="I61Vym2kbqJ8tgAql6KG-17">
          <mxGeometry relative="1" as="geometry">
            <Array as="points">
              <mxPoint x="890" y="620" />
              <mxPoint x="890" y="620" />
            </Array>
          </mxGeometry>
        </mxCell>
        <mxCell id="I61Vym2kbqJ8tgAql6KG-6" value="&lt;font style=&quot;font-size: 18px;&quot;&gt;B.prototype&lt;/font&gt;" style="rounded=0;whiteSpace=wrap;html=1;fontSize=18;" vertex="1" parent="1">
          <mxGeometry x="630" y="590" width="120" height="30" as="geometry" />
        </mxCell>
        <mxCell id="I61Vym2kbqJ8tgAql6KG-7" value="&lt;span style=&quot;background-color: rgb(255 , 255 , 255)&quot;&gt;prototype&lt;/span&gt;" style="text;html=1;align=center;verticalAlign=middle;resizable=0;points=[];autosize=1;strokeColor=none;fontSize=18;" vertex="1" parent="1">
          <mxGeometry x="510" y="515" width="90" height="30" as="geometry" />
        </mxCell>
        <mxCell id="I61Vym2kbqJ8tgAql6KG-8" value="&lt;span style=&quot;background-color: rgb(255 , 255 , 255)&quot;&gt;constructor&lt;/span&gt;" style="text;html=1;align=center;verticalAlign=middle;resizable=0;points=[];autosize=1;strokeColor=none;fontSize=18;" vertex="1" parent="1">
          <mxGeometry x="790" y="515" width="100" height="30" as="geometry" />
        </mxCell>
        <mxCell id="I61Vym2kbqJ8tgAql6KG-9" style="edgeStyle=orthogonalEdgeStyle;curved=1;rounded=0;orthogonalLoop=1;jettySize=auto;html=1;exitX=1;exitY=0.5;exitDx=0;exitDy=0;entryX=0;entryY=0.5;entryDx=0;entryDy=0;fontSize=18;" edge="1" parent="1" source="I61Vym2kbqJ8tgAql6KG-11" target="I61Vym2kbqJ8tgAql6KG-6">
          <mxGeometry relative="1" as="geometry" />
        </mxCell>
        <mxCell id="I61Vym2kbqJ8tgAql6KG-10" value="__proto__" style="edgeLabel;html=1;align=center;verticalAlign=middle;resizable=0;points=[];fontSize=18;labelBackgroundColor=none;" vertex="1" connectable="0" parent="I61Vym2kbqJ8tgAql6KG-9">
          <mxGeometry x="-0.1333" y="1" relative="1" as="geometry">
            <mxPoint y="-14" as="offset" />
          </mxGeometry>
        </mxCell>
        <mxCell id="I61Vym2kbqJ8tgAql6KG-11" value="&lt;font style=&quot;font-size: 18px&quot;&gt;b&lt;/font&gt;" style="rounded=0;whiteSpace=wrap;html=1;fontSize=18;" vertex="1" parent="1">
          <mxGeometry x="390" y="590" width="120" height="30" as="geometry" />
        </mxCell>
        <mxCell id="I61Vym2kbqJ8tgAql6KG-12" style="edgeStyle=orthogonalEdgeStyle;curved=1;rounded=0;orthogonalLoop=1;jettySize=auto;html=1;exitX=0;exitY=0.5;exitDx=0;exitDy=0;entryX=0;entryY=0.5;entryDx=0;entryDy=0;fontSize=18;" edge="1" parent="1" source="I61Vym2kbqJ8tgAql6KG-14" target="I61Vym2kbqJ8tgAql6KG-17">
          <mxGeometry relative="1" as="geometry" />
        </mxCell>
        <mxCell id="I61Vym2kbqJ8tgAql6KG-13" style="edgeStyle=orthogonalEdgeStyle;curved=1;rounded=0;orthogonalLoop=1;jettySize=auto;html=1;exitX=0.5;exitY=0;exitDx=0;exitDy=0;entryX=0.465;entryY=1.1;entryDx=0;entryDy=0;entryPerimeter=0;fontSize=18;" edge="1" parent="1" source="I61Vym2kbqJ8tgAql6KG-14" target="I61Vym2kbqJ8tgAql6KG-26">
          <mxGeometry relative="1" as="geometry" />
        </mxCell>
        <mxCell id="I61Vym2kbqJ8tgAql6KG-14" value="&lt;font style=&quot;font-size: 18px&quot;&gt;A&lt;/font&gt;" style="rounded=0;whiteSpace=wrap;html=1;fontSize=18;" vertex="1" parent="1">
          <mxGeometry x="1020" y="440" width="120" height="30" as="geometry" />
        </mxCell>
        <mxCell id="I61Vym2kbqJ8tgAql6KG-15" style="edgeStyle=orthogonalEdgeStyle;curved=1;rounded=0;orthogonalLoop=1;jettySize=auto;html=1;exitX=1;exitY=0.5;exitDx=0;exitDy=0;entryX=1;entryY=0.5;entryDx=0;entryDy=0;fontSize=18;" edge="1" parent="1" source="I61Vym2kbqJ8tgAql6KG-17" target="I61Vym2kbqJ8tgAql6KG-14">
          <mxGeometry relative="1" as="geometry" />
        </mxCell>
        <mxCell id="I61Vym2kbqJ8tgAql6KG-16" style="edgeStyle=orthogonalEdgeStyle;curved=1;rounded=0;orthogonalLoop=1;jettySize=auto;html=1;exitX=1;exitY=1;exitDx=0;exitDy=0;entryX=0;entryY=1;entryDx=0;entryDy=0;fontSize=18;" edge="1" parent="1" source="I61Vym2kbqJ8tgAql6KG-17" target="I61Vym2kbqJ8tgAql6KG-36">
          <mxGeometry relative="1" as="geometry">
            <Array as="points">
              <mxPoint x="1310" y="620" />
              <mxPoint x="1310" y="620" />
            </Array>
          </mxGeometry>
        </mxCell>
        <mxCell id="I61Vym2kbqJ8tgAql6KG-17" value="&lt;font style=&quot;font-size: 18px&quot;&gt;A.prototype&lt;/font&gt;" style="rounded=0;whiteSpace=wrap;html=1;fontSize=18;" vertex="1" parent="1">
          <mxGeometry x="1020" y="590" width="120" height="30" as="geometry" />
        </mxCell>
        <mxCell id="I61Vym2kbqJ8tgAql6KG-18" value="&lt;span style=&quot;background-color: rgb(255 , 255 , 255)&quot;&gt;prototype&lt;/span&gt;" style="text;html=1;align=center;verticalAlign=middle;resizable=0;points=[];autosize=1;strokeColor=none;fontSize=18;" vertex="1" parent="1">
          <mxGeometry x="900" y="515" width="90" height="30" as="geometry" />
        </mxCell>
        <mxCell id="I61Vym2kbqJ8tgAql6KG-19" value="&lt;span style=&quot;background-color: rgb(255 , 255 , 255)&quot;&gt;constructor&lt;/span&gt;" style="text;html=1;align=center;verticalAlign=middle;resizable=0;points=[];autosize=1;strokeColor=none;fontSize=18;" vertex="1" parent="1">
          <mxGeometry x="1180" y="515" width="100" height="30" as="geometry" />
        </mxCell>
        <mxCell id="I61Vym2kbqJ8tgAql6KG-20" value="&lt;meta charset=&quot;utf-8&quot;&gt;&lt;span style=&quot;color: rgb(0, 0, 0); font-family: helvetica; font-size: 18px; font-style: normal; font-weight: 400; letter-spacing: normal; text-align: center; text-indent: 0px; text-transform: none; word-spacing: 0px; background-color: rgb(248, 249, 250); display: inline; float: none;&quot;&gt;__proto__&lt;/span&gt;" style="text;whiteSpace=wrap;html=1;fontSize=18;" vertex="1" parent="1">
          <mxGeometry x="837.5" y="620" width="85" height="40" as="geometry" />
        </mxCell>
        <mxCell id="I61Vym2kbqJ8tgAql6KG-21" style="edgeStyle=orthogonalEdgeStyle;curved=1;rounded=0;orthogonalLoop=1;jettySize=auto;html=1;exitX=0;exitY=0.5;exitDx=0;exitDy=0;fontSize=18;entryX=0;entryY=0.5;entryDx=0;entryDy=0;" edge="1" parent="1" source="I61Vym2kbqJ8tgAql6KG-23" target="I61Vym2kbqJ8tgAql6KG-26">
          <mxGeometry relative="1" as="geometry">
            <mxPoint x="990" y="315" as="targetPoint" />
            <Array as="points">
              <mxPoint x="970" y="165" />
              <mxPoint x="970" y="315" />
            </Array>
          </mxGeometry>
        </mxCell>
        <mxCell id="I61Vym2kbqJ8tgAql6KG-22" style="edgeStyle=orthogonalEdgeStyle;curved=1;rounded=0;orthogonalLoop=1;jettySize=auto;html=1;exitX=0;exitY=0.25;exitDx=0;exitDy=0;entryX=0;entryY=0.75;entryDx=0;entryDy=0;fontSize=18;fillColor=#f8cecc;strokeColor=#b85450;" edge="1" parent="1" source="I61Vym2kbqJ8tgAql6KG-23" target="I61Vym2kbqJ8tgAql6KG-26">
          <mxGeometry relative="1" as="geometry">
            <Array as="points">
              <mxPoint x="810" y="158" />
              <mxPoint x="810" y="323" />
            </Array>
          </mxGeometry>
        </mxCell>
        <mxCell id="I61Vym2kbqJ8tgAql6KG-23" value="&lt;font style=&quot;font-size: 18px&quot;&gt;Function&lt;/font&gt;" style="rounded=0;whiteSpace=wrap;html=1;fontSize=18;" vertex="1" parent="1">
          <mxGeometry x="1025" y="150" width="120" height="30" as="geometry" />
        </mxCell>
        <mxCell id="I61Vym2kbqJ8tgAql6KG-24" style="edgeStyle=orthogonalEdgeStyle;curved=1;rounded=0;orthogonalLoop=1;jettySize=auto;html=1;exitX=1;exitY=0.5;exitDx=0;exitDy=0;entryX=1;entryY=0.5;entryDx=0;entryDy=0;fontSize=18;" edge="1" parent="1" source="I61Vym2kbqJ8tgAql6KG-26" target="I61Vym2kbqJ8tgAql6KG-23">
          <mxGeometry relative="1" as="geometry" />
        </mxCell>
        <mxCell id="I61Vym2kbqJ8tgAql6KG-25" style="edgeStyle=orthogonalEdgeStyle;curved=1;rounded=0;orthogonalLoop=1;jettySize=auto;html=1;exitX=1;exitY=0.25;exitDx=0;exitDy=0;entryX=1;entryY=0.75;entryDx=0;entryDy=0;fontSize=18;" edge="1" parent="1" source="I61Vym2kbqJ8tgAql6KG-26" target="I61Vym2kbqJ8tgAql6KG-36">
          <mxGeometry relative="1" as="geometry">
            <Array as="points">
              <mxPoint x="1170" y="300" />
              <mxPoint x="1740" y="300" />
              <mxPoint x="1740" y="613" />
            </Array>
          </mxGeometry>
        </mxCell>
        <mxCell id="I61Vym2kbqJ8tgAql6KG-26" value="&lt;font style=&quot;font-size: 18px&quot;&gt;Function.prototype&lt;/font&gt;" style="rounded=0;whiteSpace=wrap;html=1;fontSize=18;" vertex="1" parent="1">
          <mxGeometry x="1000" y="300" width="170" height="30" as="geometry" />
        </mxCell>
        <mxCell id="I61Vym2kbqJ8tgAql6KG-27" value="&lt;span style=&quot;background-color: rgb(255 , 255 , 255)&quot;&gt;prototype&lt;/span&gt;" style="text;html=1;align=center;verticalAlign=middle;resizable=0;points=[];autosize=1;strokeColor=none;fontSize=18;" vertex="1" parent="1">
          <mxGeometry x="880" y="225" width="90" height="30" as="geometry" />
        </mxCell>
        <mxCell id="I61Vym2kbqJ8tgAql6KG-28" value="&lt;span style=&quot;background-color: rgb(255 , 255 , 255)&quot;&gt;constructor&lt;/span&gt;" style="text;html=1;align=center;verticalAlign=middle;resizable=0;points=[];autosize=1;strokeColor=none;fontSize=18;" vertex="1" parent="1">
          <mxGeometry x="1160" y="225" width="100" height="30" as="geometry" />
        </mxCell>
        <mxCell id="I61Vym2kbqJ8tgAql6KG-29" value="__proto__" style="text;html=1;align=center;verticalAlign=middle;resizable=0;points=[];autosize=1;strokeColor=none;fontSize=18;" vertex="1" parent="1">
          <mxGeometry x="700" y="225" width="100" height="30" as="geometry" />
        </mxCell>
        <mxCell id="I61Vym2kbqJ8tgAql6KG-30" value="__proto__" style="text;html=1;align=center;verticalAlign=middle;resizable=0;points=[];autosize=1;strokeColor=none;fontSize=18;" vertex="1" parent="1">
          <mxGeometry x="1080" y="375" width="100" height="30" as="geometry" />
        </mxCell>
        <mxCell id="I61Vym2kbqJ8tgAql6KG-31" style="edgeStyle=orthogonalEdgeStyle;curved=1;rounded=0;orthogonalLoop=1;jettySize=auto;html=1;exitX=0;exitY=0.5;exitDx=0;exitDy=0;entryX=0;entryY=0.5;entryDx=0;entryDy=0;fontSize=18;" edge="1" parent="1" source="I61Vym2kbqJ8tgAql6KG-33" target="I61Vym2kbqJ8tgAql6KG-36">
          <mxGeometry relative="1" as="geometry">
            <Array as="points">
              <mxPoint x="1440" y="455" />
              <mxPoint x="1440" y="605" />
            </Array>
          </mxGeometry>
        </mxCell>
        <mxCell id="I61Vym2kbqJ8tgAql6KG-32" style="edgeStyle=orthogonalEdgeStyle;curved=1;rounded=0;orthogonalLoop=1;jettySize=auto;html=1;exitX=0.5;exitY=0;exitDx=0;exitDy=0;entryX=1;entryY=0.75;entryDx=0;entryDy=0;fontSize=18;" edge="1" parent="1" source="I61Vym2kbqJ8tgAql6KG-33" target="I61Vym2kbqJ8tgAql6KG-26">
          <mxGeometry relative="1" as="geometry" />
        </mxCell>
        <mxCell id="I61Vym2kbqJ8tgAql6KG-33" value="&lt;font style=&quot;font-size: 18px&quot;&gt;Object&lt;/font&gt;" style="rounded=0;whiteSpace=wrap;html=1;fontSize=18;" vertex="1" parent="1">
          <mxGeometry x="1475" y="440" width="120" height="30" as="geometry" />
        </mxCell>
        <mxCell id="I61Vym2kbqJ8tgAql6KG-34" style="edgeStyle=orthogonalEdgeStyle;curved=1;rounded=0;orthogonalLoop=1;jettySize=auto;html=1;exitX=1;exitY=0.5;exitDx=0;exitDy=0;entryX=1;entryY=0.5;entryDx=0;entryDy=0;fontSize=18;" edge="1" parent="1" source="I61Vym2kbqJ8tgAql6KG-36" target="I61Vym2kbqJ8tgAql6KG-33">
          <mxGeometry relative="1" as="geometry" />
        </mxCell>
        <mxCell id="I61Vym2kbqJ8tgAql6KG-35" style="edgeStyle=orthogonalEdgeStyle;curved=1;rounded=0;orthogonalLoop=1;jettySize=auto;html=1;exitX=0.5;exitY=1;exitDx=0;exitDy=0;entryX=0.5;entryY=0;entryDx=0;entryDy=0;fontSize=18;" edge="1" parent="1" source="I61Vym2kbqJ8tgAql6KG-36" target="I61Vym2kbqJ8tgAql6KG-40">
          <mxGeometry relative="1" as="geometry" />
        </mxCell>
        <mxCell id="I61Vym2kbqJ8tgAql6KG-36" value="&lt;font style=&quot;font-size: 18px&quot;&gt;Object.prototype&lt;/font&gt;" style="rounded=0;whiteSpace=wrap;html=1;fontSize=18;" vertex="1" parent="1">
          <mxGeometry x="1460" y="590" width="150" height="30" as="geometry" />
        </mxCell>
        <mxCell id="I61Vym2kbqJ8tgAql6KG-37" value="&lt;span style=&quot;background-color: rgb(255 , 255 , 255)&quot;&gt;prototype&lt;/span&gt;" style="text;html=1;align=center;verticalAlign=middle;resizable=0;points=[];autosize=1;strokeColor=none;fontSize=18;" vertex="1" parent="1">
          <mxGeometry x="1340" y="515" width="90" height="30" as="geometry" />
        </mxCell>
        <mxCell id="I61Vym2kbqJ8tgAql6KG-38" value="&lt;span style=&quot;background-color: rgb(255 , 255 , 255)&quot;&gt;constructor&lt;/span&gt;" style="text;html=1;align=center;verticalAlign=middle;resizable=0;points=[];autosize=1;strokeColor=none;fontSize=18;" vertex="1" parent="1">
          <mxGeometry x="1620" y="515" width="100" height="30" as="geometry" />
        </mxCell>
        <mxCell id="I61Vym2kbqJ8tgAql6KG-39" value="__proto__" style="text;html=1;align=center;verticalAlign=middle;resizable=0;points=[];autosize=1;strokeColor=none;fontSize=18;" vertex="1" parent="1">
          <mxGeometry x="822.5" y="405" width="100" height="30" as="geometry" />
        </mxCell>
        <mxCell id="I61Vym2kbqJ8tgAql6KG-40" value="&lt;font style=&quot;font-size: 18px&quot;&gt;null&lt;/font&gt;" style="rounded=0;whiteSpace=wrap;html=1;fontSize=18;" vertex="1" parent="1">
          <mxGeometry x="1475" y="700" width="120" height="30" as="geometry" />
        </mxCell>
        <mxCell id="I61Vym2kbqJ8tgAql6KG-41" value="__proto__" style="text;html=1;align=center;verticalAlign=middle;resizable=0;points=[];autosize=1;strokeColor=none;fontSize=18;" vertex="1" parent="1">
          <mxGeometry x="1360" y="360" width="100" height="30" as="geometry" />
        </mxCell>
        <mxCell id="I61Vym2kbqJ8tgAql6KG-42" value="__proto__" style="text;html=1;align=center;verticalAlign=middle;resizable=0;points=[];autosize=1;strokeColor=none;fontSize=18;" vertex="1" parent="1">
          <mxGeometry x="1620" y="285" width="100" height="30" as="geometry" />
        </mxCell>
      </root>
    </mxGraphModel>
  </diagram>
</mxfile>
